<svg xmlns="http://www.w3.org/2000/svg" version="1.0" width="60.000000pt" height="12.000000pt" viewBox="0 0 60.000000 12.000000" preserveAspectRatio="xMidYMid meet">

<g transform="translate(0.000000,12.000000) scale(0.100000,-0.100000)" fill="#465a69" stroke="none">
<path d="M20 105 c-20 -24 -18 -85 3 -99 15 -9 22 -6 42 19 l24 29 21 -27 c24 -31 42 -34 60 -11 10 11 11 25 4 51 -12 46 -36 63 -65 45 -15 -10 -24 -11 -32 -3 -16 16 -42 14 -57 -4z m48 -18 c8 -10 5 -21 -13 -42 -21 -27 -24 -28 -31 -12 -7 20 10 67 25 67 5 0 13 -6 19 -13z m84 -11 c6 -14 7 -33 4 -43 -7 -16 -10 -15 -31 11 -24 30 -23 56 1 56 8 0 19 -11 26 -24z" fill="#465a69"/>
<path d="M220 60 c0 -33 4 -60 10 -60 6 0 10 19 10 43 l1 42 15 -27 c18 -34 28 -35 48 -6 16 22 16 22 16 -9 0 -18 5 -35 10 -38 6 -4 10 17 10 54 0 34 -4 61 -10 61 -5 0 -18 -16 -28 -36 l-19 -36 -21 36 c-31 52 -42 45 -42 -24z" fill="#465a69"/>
<path d="M456 95 c-9 -24 17 -89 37 -93 9 -2 17 1 17 7 0 6 -7 11 -15 11 -9 0 -15 9 -15 25 0 16 6 25 15 25 8 0 15 5 15 10 0 6 -7 10 -15 10 -8 0 -15 5 -15 10 0 15 -17 12 -24 -5z" fill="#465a69"/>
<path d="M369 69 c-16 -31 3 -69 35 -69 14 0 28 5 31 10 3 6 -5 10 -19 10 -14 0 -28 5 -31 10 -4 6 7 10 24 10 32 0 41 16 19 38 -19 19 -46 14 -59 -9z m51 -9 c0 -5 -9 -10 -21 -10 -11 0 -17 5 -14 10 3 6 13 10 21 10 8 0 14 -4 14 -10z" fill="#465a69"/>
<path d="M531 77 c-15 -15 -14 -52 2 -65 6 -5 24 -10 40 -10 25 0 27 3 27 43 0 39 -2 42 -29 43 -15 0 -33 -4 -40 -11z m49 -32 c0 -18 -5 -25 -19 -25 -11 0 -21 6 -24 13 -7 20 4 37 24 37 14 0 19 -7 19 -25z" fill="#465a69"/>
</g>
</svg>